<svg width="89" height="31" viewBox="0 0 89 31" fill="none" xmlns="http://www.w3.org/2000/svg">
<path d="M12.0333 30.9537C10.3188 30.9537 8.72067 30.6826 7.239 30.1402C5.7785 29.577 4.5085 28.7843 3.429 27.7622C2.3495 26.7401 1.50283 25.5407 0.889 24.164C0.296333 22.7873 0 21.275 0 19.6271C0 17.9792 0.296333 16.4669 0.889 15.0901C1.50283 13.7134 2.3495 12.514 3.429 11.4919C4.52967 10.4698 5.81025 9.68756 7.27075 9.14522C8.73125 8.58202 10.3293 8.30041 12.065 8.30041C13.9912 8.30041 15.7268 8.63416 17.272 9.30167C18.6868 9.88575 19.8944 10.7251 20.8947 11.8197C21.0752 12.0172 21.0531 12.3221 20.8552 12.5021L18.2807 14.8441C18.0749 15.0312 17.757 15.0133 17.5607 14.8162C16.8908 14.144 16.1595 13.6304 15.367 13.2754C14.4357 12.8373 13.4197 12.6183 12.319 12.6183C11.2818 12.6183 10.3293 12.7852 9.4615 13.1189C8.59367 13.4527 7.84225 13.9325 7.20725 14.5582C6.57225 15.184 6.07484 15.9245 5.715 16.7798C5.37634 17.635 5.207 18.5841 5.207 19.6271C5.207 20.67 5.37634 21.6191 5.715 22.4744C6.07484 23.3296 6.57225 24.0701 7.20725 24.6959C7.84225 25.3217 8.59367 25.8015 9.4615 26.1352C10.3293 26.469 11.2818 26.6358 12.319 26.6358C13.4197 26.6358 14.4357 26.4272 15.367 26.01C16.1597 25.6372 16.8911 25.1056 17.5612 24.4154C17.7566 24.2141 18.0777 24.1941 18.2852 24.3829L20.8552 26.7207C21.0531 26.9007 21.0752 27.2056 20.8949 27.4032C19.8945 28.4998 18.6869 29.3495 17.272 29.9525C15.7268 30.62 13.9806 30.9537 12.0333 30.9537Z" fill="white"/>
<path d="M34.7154 13.4944C36.0701 13.4944 37.2766 13.7656 38.3349 14.3079C39.4144 14.8294 40.2611 15.6429 40.8749 16.7485C41.4888 17.8332 41.7957 19.2307 41.7957 20.9412V30.0783C41.7957 30.3544 41.5718 30.5783 41.2957 30.5783H37.3427C37.0665 30.5783 36.8427 30.3544 36.8427 30.0783V21.6922C36.8427 20.3363 36.5357 19.335 35.9219 18.6884C35.3292 18.0418 34.4826 17.7184 33.3819 17.7184C32.5987 17.7184 31.8897 17.8853 31.2547 18.2191C30.6408 18.5319 30.154 19.0221 29.7942 19.6896C29.4555 20.3571 29.2862 21.2124 29.2862 22.2554V30.0783C29.2862 30.3544 29.0623 30.5783 28.7862 30.5783H24.8332C24.557 30.5783 24.3332 30.3544 24.3332 30.0783V7.86174C24.3332 7.5856 24.557 7.36174 24.8332 7.36174H28.7862C29.0623 7.36174 29.2862 7.5856 29.2862 7.86174V16.9662C29.2862 17.4405 28.6875 17.6483 28.3937 17.276L28.3794 17.2579C28.2554 17.1007 28.2356 16.8837 28.3399 16.7128C28.9424 15.7248 29.7659 14.9545 30.8102 14.4018C31.9532 13.7969 33.2549 13.4944 34.7154 13.4944Z" fill="white"/>
<path d="M46.7853 30.5783C46.5092 30.5783 46.2853 30.3544 46.2853 30.0783V14.2447C46.2853 13.9686 46.5092 13.7447 46.7853 13.7447H50.7383C51.0145 13.7447 51.2383 13.9686 51.2383 14.2447V30.0783C51.2383 30.3544 51.0145 30.5783 50.7383 30.5783H46.7853Z" fill="white"/>
<path d="M56.3351 30.5783C56.059 30.5783 55.8351 30.3544 55.8351 30.0783V7.86174C55.8351 7.5856 56.059 7.36174 56.3351 7.36174H60.2881C60.5643 7.36174 60.7881 7.5856 60.7881 7.86174V30.0783C60.7881 30.3544 60.5643 30.5783 60.2881 30.5783H56.3351Z" fill="white"/>
<path d="M65.8849 30.5783C65.6088 30.5783 65.3849 30.3544 65.3849 30.0783V7.86174C65.3849 7.5856 65.6088 7.36174 65.8849 7.36174H69.8379C70.1141 7.36174 70.3379 7.5856 70.3379 7.86174V30.0783C70.3379 30.3544 70.1141 30.5783 69.8379 30.5783H65.8849Z" fill="white"/>
<path d="M74.26 30.5783C73.9838 30.5783 73.76 30.3544 73.76 30.0783V27.8222C73.76 27.7028 73.8028 27.5872 73.8806 27.4966L83.3775 16.4305C83.6074 16.1627 84.0348 16.2108 84.1993 16.523L84.3275 16.7663C84.5029 17.0993 84.2615 17.4994 83.8852 17.4994H74.4822C74.2061 17.4994 73.9822 17.2756 73.9822 16.9994V14.2447C73.9822 13.9686 74.2061 13.7447 74.4822 13.7447H88.2142C88.4904 13.7447 88.7142 13.9686 88.7142 14.2447V16.5008C88.7142 16.6202 88.6715 16.7357 88.5937 16.8264L79.089 27.9015C78.8613 28.1668 78.4385 28.1225 78.2708 27.8156L78.1329 27.5633C77.9509 27.2301 78.192 26.8236 78.5717 26.8236H88.5C88.7761 26.8236 89 27.0474 89 27.3236V30.0783C89 30.3544 88.7761 30.5783 88.5 30.5783H74.26Z" fill="white"/>
<path d="M39.7823 0.962292C38.8266 1.59008 38.0755 2.48373 37.6214 3.53313C38.7172 3.68679 39.7662 4.07782 40.6952 4.67893C41.6241 5.28003 42.4106 6.07671 42.9998 7.0133C43.588 6.07591 44.3743 5.27862 45.3034 4.67741C46.2325 4.0762 47.282 3.68564 48.3781 3.53313C47.9241 2.48373 47.173 1.59008 46.2173 0.962292C45.2616 0.334502 44.1432 0 42.9998 0C41.8564 0 40.7379 0.334502 39.7823 0.962292Z" fill="white"/>
<path d="M54.6605 10.9537C54.6519 10.4503 54.5709 9.94956 54.4191 9.46696C54.1968 8.76017 53.8277 8.10834 53.3358 7.55423C52.8439 7.00012 52.2405 6.55624 51.565 6.2517C50.8896 5.94716 50.1574 5.78885 49.4164 5.78713C48.5818 5.78995 47.7599 5.99172 47.0188 6.37572C46.2777 6.75971 45.6389 7.31486 45.1553 7.99511C44.6717 8.67537 44.3572 9.46112 44.238 10.2872C44.206 10.5086 44.1884 10.7313 44.1848 10.9537H54.6605Z" fill="white"/>
<path d="M41.8294 10.9537C41.4764 3.94247 31.4791 4.33003 31.3521 10.9537H41.8294Z" fill="white"/>
</svg>
